<svg id="레이어_1" data-name="레이어 1" xmlns="http://www.w3.org/2000/svg" xmlns:xlink="http://www.w3.org/1999/xlink" viewBox="0 0 154.14 157.5"><defs><style>.cls-1{fill:#fff;}.cls-2{fill:url(#무제_그라디언트);}.cls-3{fill:url(#무제_그라디언트_2);}.cls-4{fill:url(#무제_그라디언트_3);}</style><linearGradient id="무제_그라디언트" x1="112.36" y1="16.87" x2="30.71" y2="181.58" gradientTransform="matrix(0.99, -0.14, -0.14, -0.99, 12.72, 173.46)" gradientUnits="userSpaceOnUse"><stop offset="0.11" stop-color="#fff"/><stop offset="0.14" stop-color="#f7f9fc"/><stop offset="0.35" stop-color="#c5d2ed"/><stop offset="0.55" stop-color="#9db3e1"/><stop offset="0.73" stop-color="#809dd8"/><stop offset="0.89" stop-color="#6f90d3"/><stop offset="1" stop-color="#698bd1"/></linearGradient><radialGradient id="무제_그라디언트_2" cx="28.72" cy="67.4" r="95.75" gradientTransform="matrix(0.99, -0.14, -0.14, -0.99, 12.72, 173.46)" gradientUnits="userSpaceOnUse"><stop offset="0.42" stop-color="#5641ef"/><stop offset="0.55" stop-color="#5547ef" stop-opacity="0.77"/><stop offset="0.73" stop-color="#5258ee" stop-opacity="0.47"/><stop offset="0.93" stop-color="#4c75ed" stop-opacity="0.12"/><stop offset="1" stop-color="#4a80ed" stop-opacity="0"/></radialGradient><radialGradient id="무제_그라디언트_3" cx="67.85" cy="58.36" r="68.62" gradientTransform="matrix(0.99, -0.14, -0.14, -0.99, 12.72, 173.46)" gradientUnits="userSpaceOnUse"><stop offset="0.29" stop-color="#5643ef"/><stop offset="0.45" stop-color="#5549ef" stop-opacity="0.77"/><stop offset="0.67" stop-color="#515aee" stop-opacity="0.46"/><stop offset="0.93" stop-color="#4c77ed" stop-opacity="0.1"/><stop offset="1" stop-color="#4a80ed" stop-opacity="0"/></radialGradient></defs><title>back</title><g id="레이어_5" data-name="레이어 5"><path class="cls-1" d="M19.61,73.13,33.4,89.41l15.85,15.18,17.93,10,13.77,5.07,14,2.41,17.28-.69,1.39,1.92,2.47,10S125,152,127.61,152.92s1.52-2.75,1.52-2.75l-.47-11.55s1.46-15.67,7.52-17.06,15.28-3.33,15.28-3.33-1.23-5-3.95-6.3-14.77-9.17-16.33-10.16-5.37-4.27-5.79-6.43S125,78.12,125,78.12s-6.13-26.19-15.12-35.9S75.11,5.14,54.13,3.34s-34.77.61-38.8,4.22-.24,6.7-.24,6.7l5.12,24.82-2.49-.45L6.38,30.79S5,47.37,6.9,51s12.71,22.1,12.71,22.1h0" transform="translate(-2.71 -0.93)"/><polygon class="cls-1" points="78.33 13.76 85.03 13.29 87.1 12.88 90.84 12.95 114.02 18.77 119.25 22.06 118.56 27.71 111.18 36.06 109.36 37.44 106.58 39.16 78.33 13.76"/></g><g id="레이어_4" data-name="레이어 4"><path id="_패스_" data-name="&lt;패스&gt;" class="cls-2" d="M14.13,9.66l6.1,29.43L6.38,30.79S1.73,27.93,2.9,36A80.42,80.42,0,0,0,7.38,52.27L19.6,73s6.59,5.71,17.84,4.58,13.58-.46,24.77,7,18.58,14.48,30,18.88,19.66,17,13.49,18.45l6.16-1.4,3.76,9.15s.63-10.3,6.49-8.22a20,20,0,0,1,8.58,5.52s-1.05-26-3.31-28.32-2.26-20.39-2.26-20.39S108,36.93,98,27.78,70.72,9.72,70.72,9.72L56.18,3.54,38.59,2.06S15.12,6.08,14.13,9.66Z" transform="translate(-2.71 -0.93)"/><path class="cls-3" d="M63.69,55.2s7.89-18.73,6.95-28,26.3,2.24,38,26.82,13.61,49.86,13.61,49.86L110.3,94.3S87.65,90.72,83.7,77.45,63.69,55.2,63.69,55.2Z" transform="translate(-2.71 -0.93)"/><path class="cls-4" d="M61.89,56.68s8.29,0,16,9.1S79,80.66,89.19,89.49,105,91,113,98.16s12.6,11.61,15,16.92-2.77-10.71-12.5-18.59S99.58,93.54,91.69,83.06,77,56.2,61.89,56.68Z" transform="translate(-2.71 -0.93)"/></g><g id="레이어_7" data-name="레이어 7"><path class="cls-1" d="M65.19,54.38s10.8-.76,14.4,1.75,4.78,5.07,3.65,7.76-5.59,16.48-5.59,16.48l-5.37,5.43s-4.07-.22-5.58-5S63,63.59,62.89,62.9s0-3.73-2.34-2.89C58,60.87,65.19,54.38,65.19,54.38Z" transform="translate(-2.71 -0.93)"/></g><g id="body"><path d="M109.07,24.66s-12.55-2.92-16.3-1.57,1.86,1.65,1.86,1.65Z" transform="translate(-2.71 -0.93)"/><polygon points="104.35 30.08 99.3 30.82 100.85 32.41 104.35 30.08"/><path d="M69.46,19.8s3.77,19-7.35,34.92S32,71.73,32,71.73A36.93,36.93,0,0,0,64.1,55.95,40.58,40.58,0,0,0,69.46,19.8Z" transform="translate(-2.71 -0.93)"/><path d="M69.93,54.29s7.27-.75,10.62,1.49,5.17,4.3,1.09,16.52-6.49,13.07-9.44,15-5-.79-7-7.58-2.62-18-2.62-18,4.52,27.64,10.07,22,11.91-20.93,8.94-24S69.93,54.29,69.93,54.29Z" transform="translate(-2.71 -0.93)"/><path d="M91.45,13.27s13.58-.46,23.64,4.14,12.68,7.25,6,13.77-9.06,7.18-9.06,7.18,6.93-6.56,7.57-10.5-.58-4-4.2-6S89.68,12.22,86.7,14C83.93,15.78,91.45,13.27,91.45,13.27Z" transform="translate(-2.71 -0.93)"/><path d="M69.36,71.25s-6.95-7.48-6.74-9.53S69.36,71.25,69.36,71.25Z" transform="translate(-2.71 -0.93)"/><path d="M76.61,64.84s-13.29-5.24-12-7.25S76.61,64.84,76.61,64.84Z" transform="translate(-2.71 -0.93)"/><path d="M20.8,79.22c16.32,16.32,22.87,25.27,44,34.84s15.86,8.31,25.89,9.17a90.71,90.71,0,0,0,18.64-.39s4-2.1,4.65,4.17,5.82,19.16,12.06,27.35,5.42,2.55,4.25-4.15-1.53-17.46,2.93-23.67,11.67-5.23,15.77-4.82,11,2.45,6.4-3.25-14.88-12-22-15.8-5.61-10.81-5.82-13.6S124.36,66.59,116.9,50.7,79.92,11.82,75,9.3,56.93,1,43.58.93,20.37,3.29,15.79,6.49s-3.89,1.07-2.56,6.74,6.41,24.63,6.41,24.63-9.36-6.72-13.28-8,9.55,8,12.46,10.62,4.1.41,2.92-4.26-4.95-21.51-6-24.18,1.23-4,6.77-5.53S47.22-.41,63.35,7.66s14.46,7,14.46,7S100,29.3,110.55,45.26s14.61,28.9,13.85,43.16,8.58,15.22,11.91,17.27S148,113.37,150,116.32s-11.73,2.72-15.7,5.31-6.85,16.86-5.73,26.6S119.07,140.72,116,128s-3.25-6.4-12.38-6.59-33.47-2.21-52.31-17.15-43.22-45-47.23-60" transform="translate(-2.71 -0.93)"/></g><g id="eye"><circle cx="45.92" cy="28.88" r="16.4" transform="translate(-6.39 5.98) rotate(-8.27)"/><circle class="cls-1" cx="45.92" cy="28.88" r="15.4" transform="translate(-6.39 5.98) rotate(-8.27)"/><circle cx="45.92" cy="28.88" r="11.6" transform="translate(-6.39 5.98) rotate(-8.27)"/><path d="M129.3,106.8s-.85,6.69,0,10.11a16.74,16.74,0,0,0,2.32,5.52Z" transform="translate(-2.71 -0.93)"/><path d="M140.35,116.81s-9.66-.41-9.21,2.65l-.43-3Z" transform="translate(-2.71 -0.93)"/></g></svg>